<?xml version="1.0" encoding="UTF-8"?>
<svg id="Layer_1" data-name="Layer 1" xmlns="http://www.w3.org/2000/svg" viewBox="0 0 2827.87 1189.75">
  <defs>
    <style>
      .cls-1 {
        fill: #c92323;
      }

      .cls-2 {
        fill: #fff;
      }
    </style>
  </defs>
  <g>
    <g>
      <path class="cls-1" d="M716.24,249.31H212.01c-51.61,0-93.45,41.85-93.45,93.46v504.23c0,51.61,41.84,93.45,93.45,93.45h504.23c51.61,0,93.46-41.84,93.46-93.45v-504.23c0-51.61-41.85-93.46-93.46-93.46ZM249.61,928.46v-267.15c11.32,12.38,18.87,30.99,38.3,31.6l-6.7-17.23c1.9-.37,2.29.87,3.07,2.19,1.19,2.03,5.89,14.54,6.55,15.03,3.12-.42,12.41-4.35,13.9-6.7,1.8-2.87-7.04-14.22-7.23-18.18l3.06,2.19,7.48,12.65c10.04-12.72,8.11-24.66.4-37.76-5.25-8.93-17.74-20.09-18.64-30.19-1.01-11.2,6.37-20.63,17.72-21.64,14.49-1.29,29.68.91,44.05,1.04,35.92.34,71.88-.33,107.79-.04-2.05,20.89-8.85,45.05,13.39,57.46.23-5.1.26-11.59,1.23-16.53.34-1.75.46-3.16,2.61-2.61l-1.92,20.09c7.57,2.82,14.38,2.22,21.94-.08l-1.79-20.51c2.48-3.33,3.2,2.08,3.55,4.09.73,4.21,1.61,10.75.26,14.59,13.01-5.71,16.34-22.03,17.22-34.97,1.51-21.97-.65-48.62-15.33-66.05-1.76-2.08-9.24-7.95-9.56-8.66-1.53-3.54,6.85,1.55,7.57,2.01,15.52,10.01,23.96,32.37,25,50.19l93.71.14c3.35,8.28,4.57,17.32,4.01,26.25-.67,10.58-5.87,20.54-6.73,30.61-1.08,12.57,1.75,26.62,14.34,32.07.89-5.2,1-11.1,2.63-16.11.52-1.6-.43-2.52,2.17-2.08l-2.46,19.16c1.96,3.19,16.68,4.09,19.71.47v-20.59c.62-.08,1.92,1.27,1.92,1.43v18.68c14.87-6.38,18.06-27.3,19.99-41.79,2.38-17.91,1.81-35.1.12-53.03h5.75v339.94H249.61Z"/>
      <path d="M716.24,237.32H212.01c-58.13,0-105.43,47.3-105.43,105.44v504.23c0,58.13,47.3,105.43,105.43,105.43h504.23c58.14,0,105.44-47.3,105.44-105.43v-504.23c0-58.14-47.3-105.44-105.44-105.44ZM797.72,846.99c0,44.92-36.55,81.47-81.48,81.47H212.01c-44.92,0-81.47-36.55-81.47-81.47v-504.23c0-44.92,36.55-81.48,81.47-81.48h504.23c44.93,0,81.48,36.56,81.48,81.48v504.23Z"/>
      <path class="cls-2" d="M678.66,588.53v339.93H249.61v-267.15c11.32,12.38,18.87,30.99,38.3,31.6l-6.7-17.23c1.9-.37,2.29.87,3.07,2.19,1.19,2.03,5.89,14.54,6.55,15.03,3.12-.42,12.41-4.35,13.9-6.7,1.8-2.87-7.04-14.22-7.23-18.18l3.06,2.19,7.48,12.65c10.04-12.72,8.11-24.66.4-37.76-5.25-8.93-17.74-20.09-18.64-30.19-1.01-11.2,6.37-20.63,17.72-21.64,14.49-1.29,29.68.91,44.05,1.04,35.92.34,71.88-.33,107.79-.04-2.05,20.89-8.85,45.05,13.39,57.46.23-5.1.26-11.59,1.23-16.53.34-1.75.46-3.16,2.61-2.61l-1.92,20.09c7.57,2.82,14.38,2.22,21.94-.08l-1.79-20.51c2.48-3.33,3.2,2.08,3.55,4.09.73,4.21,1.61,10.75.26,14.59,13.01-5.71,16.34-22.03,17.22-34.97,1.51-21.97-.65-48.62-15.33-66.05-1.76-2.08-9.24-7.95-9.56-8.66-1.53-3.54,6.85,1.55,7.57,2.01,15.52,10.01,23.96,32.37,25,50.19l93.71.14c3.35,8.28,4.57,17.32,4.01,26.25-.67,10.58-5.87,20.54-6.73,30.61-1.08,12.57,1.75,26.62,14.34,32.07.89-5.2,1-11.1,2.63-16.11.52-1.6-.43-2.52,2.17-2.08l-2.46,19.16c1.96,3.19,16.68,4.09,19.71.47v-20.59c.62-.08,1.92,1.27,1.92,1.43v18.68c14.87-6.38,18.06-27.3,19.99-41.79,2.38-17.91,1.81-35.1.12-53.03h5.75Z"/>
    </g>
    <rect class="cls-2" x="315.73" y="500.27" width="86.41" height="39.59"/>
    <rect class="cls-2" x="229.77" y="518.03" width="86.41" height="39.59"/>
    <path d="M760.58,770.46c-14.89-49.06,4.24-92.83,1.39-142.18-2.33-40.32-20.25-84.67-64.13-92.93-17.91-47.32-67.67-65.96-115.42-61.74-47.22,4.18-88.57,29.33-134.1,33.51-7.5.68-16.19.54-23.81.84l-3.26-9.02.7-.9c4.57-2.25,37.74-7.96,38.35-10.56.35-1.56-1.73-2.77-3.22-2.35l-35.57,8.61c-2.54-.23-5.1-6.39-3.38-8.16,4.23-3.21,33.11-17.66,34.3-19.84,1.96-3.59-1.1-4.75-4.31-2.88l-33.78,19.37c-4.63-11.82-15-20.57-24.39-28.69,1.12-9.04,1.87-45.76-9.65-47.92-6.86-1.29-20.26,9.2-25.36,13.86-6.07,5.56-11.88,12.66-16.47,19.44-32.71.27-64.06,10.68-88.52,32.58-15.07-5.32-30.15-11.53-46.12-13.89-17.85-2.65-30.93-2.64-22.09,19.22,5.57,13.74,16.23,26.41,25.59,37.7-.15,4.67-2.54,8.85-3.43,13.46-2.36,12.14-.53,25.87,6.42,36.13-.67.94-1.25,1.24-2.38,1.44-17.54,3-35.98,3.12-53.39,6.95-2.72.59-5.2,1.09-4.55,4.53,2.03.08,4.06.07,6.11-.11,16.51-1.5,35.39-7.18,51.82-7.59,3.18-.09,7-.28,7.2,3.87l-55.94,25c-1.5.33-2.03,4.15-1.51,4.7,2.28,2.44,54-25.44,61.28-26.81l-1.19,3.15-40.99,37.5-.91,2.9,2.25,1.34,44.2-40.1,2.39,1.43v358.14h24.9v-279.13c11.32,12.38,18.87,30.99,38.3,31.6l-6.7-17.23c1.9-.37,2.29.87,3.07,2.19,1.19,2.03,5.89,14.54,6.55,15.03,3.12-.42,12.41-4.35,13.9-6.7,1.8-2.87-7.04-14.22-7.23-18.18l3.06,2.19,7.48,12.65c10.04-12.72,8.11-24.66.4-37.76-5.25-8.93-17.74-20.09-18.64-30.19-1.01-11.2,6.37-20.63,17.72-21.64,14.49-1.29,29.68.91,44.05,1.04,35.92.34,71.88-.33,107.79-.04-2.05,20.89-8.85,45.05,13.39,57.46.23-5.1.26-11.59,1.23-16.53.34-1.75.46-3.16,2.61-2.61l-1.92,20.09c7.57,2.82,14.38,2.22,21.94-.08l-1.79-20.51c2.48-3.33,3.2,2.08,3.55,4.09.73,4.21,1.61,10.75.26,14.59,13.01-5.71,16.34-22.03,17.22-34.97,1.51-21.97-.65-48.62-15.33-66.05-1.76-2.08-9.24-7.95-9.56-8.66-1.53-3.54,6.85,1.55,7.57,2.01,15.52,10.01,23.96,32.37,25,50.19l93.71.14c3.35,8.28,4.57,17.32,4.01,26.25-.67,10.58-5.87,20.54-6.73,30.61-1.08,12.57,1.75,26.62,14.34,32.07.89-5.2,1-11.1,2.63-16.11.52-1.6-.43-2.52,2.17-2.08l-2.46,19.16c1.96,3.19,16.68,4.09,19.71.47v-20.59c.62-.08,1.92,1.27,1.92,1.43v18.68c14.87-6.38,18.06-27.3,19.99-41.79,2.38-17.91,1.81-35.1.12-53.03h5.75v351.92h23.94v-349.04c6.82,1.49,12.74,12.25,15.49,18.51,16.73,38.01.22,78-.2,116.96-.24,22.02,7.51,78.58,30.97,87.86,12.39,4.9,19.96-6.45,19.91-17.9-.04-9.09-5.63-17.93-8.19-26.38ZM265.08,548.62c-2.49-.72-11.55-6.32-12.46-8.61-2.2-5.55,6.71.8,7.51,1.11,12.13,4.64,20.82,2.57,27.97-8.43,1.74-2.67,1.2-7.27,5.54-6.42.66,14.81-14.25,26.5-28.56,22.34ZM347.24,524.89c-4.13-.65-14.57-4.85-16.04-8.87-2.52-6.88,7.04.23,9.39,1.14,11.83,4.58,21.88,2.07,27.66-9.66,1.53-3.13.6-8.15,4.89-7.08,1.71,14.86-11.2,26.76-25.91,24.47Z"/>
  </g>
  <g>
    <path class="cls-2" d="M1254.66,646.33c-13.92,75.07-65.62,124.78-142.19,124.78-86.51,0-152.63-59.16-152.63-172.51s59.16-179.97,153.62-179.97c82.53,0,134.73,52.7,141.19,119.32h-69.11c-9.44-37.29-38.78-59.66-71.59-59.66-57.17,0-84.02,44.25-84.02,116.33s26.85,116.33,80.54,116.33c40.77,0,65.62-23.37,75.07-64.63h69.11Z"/>
    <path class="cls-2" d="M1433.14,759.68c-1.99-5.97-3.48-14.42-3.98-21.87-15.41,16.9-41.26,28.34-74.08,28.34-55.68,0-81.53-27.34-81.53-67.12,0-70.6,47.23-78.55,112.36-87.5,32.32-4.47,41.26-10.94,41.26-27.84,0-15.91-15.91-25.35-41.26-25.35-29.33,0-41.26,14.42-44.25,36.29h-60.15c.99-50.71,28.83-86.01,107.38-86.01s104.4,34.8,104.4,96.45v154.61h-60.15ZM1428.66,639.87c-6.46,6.46-17.9,9.94-41.76,14.42-36.79,6.96-48.72,17.4-48.72,38.28,0,18.39,10.94,27.34,31.32,27.34,33.31,0,58.17-24.36,58.66-53.19l.5-26.85Z"/>
    <path class="cls-2" d="M1531.58,759.68v-244.6h60.65v29.33c21.38-32.81,46.24-35.8,72.59-35.8h8.45v66.12c-5.97-.99-11.93-1.49-17.9-1.49-39.77,0-59.16,19.89-59.16,59.16v127.27h-64.63Z"/>
    <path class="cls-2" d="M1855.72,759.68l-.5-29.83c-15.41,24.86-38.28,36.29-68.11,36.29-61.65,0-105.89-48.72-105.89-131.25,0-74.08,37.29-126.28,100.42-126.28,30.33,0,54.19,12.43,72.59,38.28v-121.31h63.64v334.09h-62.15ZM1856.72,643.35c0-53.2-18.39-79.54-54.19-79.54-37.78,0-55.68,25.35-55.68,75.57,0,43.75,22.87,74.08,55.19,74.08s54.69-28.83,54.69-70.1Z"/>
    <path class="cls-1" d="M2245.5,646.33c-13.92,75.07-65.62,124.78-142.19,124.78-86.51,0-152.63-59.16-152.63-172.51s59.16-179.97,153.62-179.97c82.53,0,134.73,52.7,141.19,119.32h-69.11c-9.44-37.29-38.78-59.66-71.59-59.66-57.17,0-84.02,44.25-84.02,116.33s26.85,116.33,80.54,116.33c40.77,0,65.62-23.37,75.07-64.63h69.11Z"/>
    <path class="cls-1" d="M2423.98,759.68c-1.99-5.97-3.48-14.42-3.98-21.87-15.41,16.9-41.26,28.34-74.08,28.34-55.68,0-81.53-27.34-81.53-67.12,0-70.6,47.23-78.55,112.36-87.5,32.32-4.47,41.26-10.94,41.26-27.84,0-15.91-15.91-25.35-41.26-25.35-29.33,0-41.26,14.42-44.25,36.29h-60.15c.99-50.71,28.83-86.01,107.38-86.01s104.4,34.8,104.4,96.45v154.61h-60.15ZM2419.51,639.87c-6.46,6.46-17.9,9.94-41.76,14.42-36.79,6.96-48.72,17.4-48.72,38.28,0,18.39,10.94,27.34,31.32,27.34,33.31,0,58.17-24.36,58.66-53.19l.5-26.85Z"/>
    <path class="cls-1" d="M2661.13,598.6h60.16v69.6c0,51.7-29.83,97.94-98.93,97.94s-99.93-45.74-99.93-98.44v-218.75h63.64v66.12h135.23v45.74h-135.23v100.43c0,30.82,10.94,48.72,37.29,48.72s37.78-17.4,37.78-47.73v-63.64Z"/>
  </g>
</svg>